<?xml version="1.0" encoding="utf-8"?>
<!-- Generator: Adobe Illustrator 24.2.3, SVG Export Plug-In . SVG Version: 6.00 Build 0)  -->
<svg version="1.1" xmlns="http://www.w3.org/2000/svg" xmlns:xlink="http://www.w3.org/1999/xlink" x="0px" y="0px"
	 viewBox="0 0 2000 800" style="enable-background:new 0 0 2000 800;" xml:space="preserve">
<style type="text/css">
	.st0{fill:#5B5F5F;}
	.st1{fill:#5B5F5F;stroke:#FFFFFF;stroke-miterlimit:10;}
	.st2{font-family:'Gontserrat-Regular';}
	.st3{font-size:112.9912px;}
</style>
<g id="Base">
</g>
<g id="Layer_2">
	<g>
		<g>
			<g>
				<path class="st0" d="M153.36,537.66l-39.88-67.93c-1.76,0.22-4.51,0.33-8.24,0.33H53.17v67.6H9V307.94h96.24
					c29.88,0,52.95,6.89,69.22,20.67c16.26,13.78,24.39,33.26,24.39,58.41c0,17.94-3.9,33.26-11.7,45.94
					c-7.8,12.69-19.17,22.21-34.11,28.55l50.76,76.14H153.36z M53.17,431.34h52.08c16.7,0,29.44-3.61,38.23-10.83
					c8.79-7.22,13.18-17.94,13.18-32.16c0-14-4.4-24.5-13.18-31.5c-8.79-7-21.54-10.5-38.23-10.5H53.17V431.34z"/>
			</g>
			<g>
				<path class="st0" d="M517.4,397.86c-9.12-2.84-17.53-4.27-25.21-4.27c-7.25,0-13.02,1.26-17.3,3.77
					c-4.28,2.52-6.43,6.4-6.43,11.65c0,5.47,2.69,9.68,8.08,12.63c5.38,2.95,13.89,6.07,25.54,9.35
					c12.3,3.72,22.41,7.38,30.32,10.99c7.91,3.61,14.78,8.97,20.6,16.08c5.82,7.11,8.73,16.47,8.73,28.06
					c0,17.06-6.59,30.19-19.78,39.38c-13.18,9.19-29.78,13.78-49.77,13.78c-13.63,0-26.92-2.13-39.88-6.4
					c-12.97-4.27-23.95-10.34-32.96-18.21l14.83-29.86c7.91,6.78,17.36,12.09,28.34,15.92c10.99,3.83,21.42,5.74,31.31,5.74
					c7.91,0,14.22-1.36,18.95-4.1c4.72-2.73,7.09-6.84,7.09-12.31c0-6.12-2.75-10.72-8.24-13.78c-5.49-3.06-14.39-6.45-26.7-10.17
					c-11.87-3.5-21.54-6.94-29-10.34c-7.47-3.39-13.96-8.53-19.45-15.42c-5.49-6.89-8.24-15.92-8.24-27.07
					c0-17.28,6.31-30.46,18.95-39.54c12.63-9.08,28.51-13.62,47.63-13.62c11.64,0,23.12,1.64,34.44,4.92
					c11.31,3.28,21.37,7.88,30.16,13.78l-15.49,30.85C535.36,404.65,526.51,400.71,517.4,397.86z"/>
			</g>
			<g>
				<path class="st0" d="M694.88,526.83c-14.06,8.53-28.79,12.8-44.17,12.8c-15.16,0-27.58-4.43-37.24-13.29
					c-9.67-8.86-14.5-21.93-14.5-39.22v-86.64h-24.72l-0.33-31.18h25.05v-48.24h42.52v48.24h50.43v31.18h-50.43v79.09
					c0,8.1,1.53,13.84,4.61,17.23c3.07,3.39,7.69,5.09,13.84,5.09c6.59,0,14.94-2.41,25.05-7.22L694.88,526.83z"/>
			</g>
			<g>
				<path class="st0" d="M857.21,384.74c14.17,15.97,21.26,38.4,21.26,67.28c0,5.69-0.11,9.96-0.33,12.8H747.95
					c2.85,12.47,8.74,22.26,17.63,29.37c8.9,7.11,19.83,10.67,32.8,10.67c9.01,0,17.63-1.69,25.87-5.09
					c8.24-3.39,15.43-8.25,21.59-14.6l23.07,23.96c-8.79,9.63-19.5,17.06-32.14,22.32c-12.64,5.25-26.65,7.88-42.02,7.88
					c-18.02,0-33.9-3.72-47.63-11.16c-13.74-7.43-24.34-17.89-31.81-31.34c-7.47-13.45-11.21-28.93-11.21-46.44
					c0-17.5,3.79-33.03,11.37-46.6c7.58-13.56,18.18-24.12,31.81-31.67c13.62-7.55,29.11-11.32,46.47-11.32
					C821.88,360.78,843.04,368.77,857.21,384.74z M839.25,436.26c-0.44-12.91-4.73-23.19-12.85-30.85
					c-8.13-7.66-18.9-11.49-32.3-11.49c-12.53,0-23.02,3.77-31.48,11.32c-8.46,7.55-13.68,17.89-15.65,31.01H839.25z"/>
			</g>
			<g>
				<path class="st0" d="M975.86,369.8c10.22-6.01,22.13-9.13,35.76-9.35v41.35c-18.24-1.09-32.79,3.12-43.67,12.63
					c-10.88,9.52-16.31,22.37-16.31,38.56v84.67h-42.85V362.09h42.85v33.8C957.57,384.52,965.64,375.82,975.86,369.8z"/>
			</g>
			<g>
				<path class="st0" d="M1112.97,397.86c-9.12-2.84-17.53-4.27-25.21-4.27c-7.25,0-13.02,1.26-17.3,3.77
					c-4.28,2.52-6.43,6.4-6.43,11.65c0,5.47,2.69,9.68,8.08,12.63c5.38,2.95,13.89,6.07,25.54,9.35
					c12.3,3.72,22.41,7.38,30.32,10.99c7.91,3.61,14.77,8.97,20.6,16.08c5.82,7.11,8.73,16.47,8.73,28.06
					c0,17.06-6.59,30.19-19.78,39.38c-13.18,9.19-29.78,13.78-49.77,13.78c-13.63,0-26.92-2.13-39.88-6.4
					c-12.97-4.27-23.95-10.34-32.96-18.21l14.83-29.86c7.91,6.78,17.35,12.09,28.34,15.92c10.98,3.83,21.42,5.74,31.31,5.74
					c7.91,0,14.22-1.36,18.95-4.1c4.72-2.73,7.09-6.84,7.09-12.31c0-6.12-2.75-10.72-8.24-13.78c-5.49-3.06-14.39-6.45-26.7-10.17
					c-11.86-3.5-21.54-6.94-29-10.34c-7.47-3.39-13.96-8.53-19.45-15.42c-5.49-6.89-8.24-15.92-8.24-27.07
					c0-17.28,6.31-30.46,18.95-39.54c12.63-9.08,28.51-13.62,47.63-13.62c11.64,0,23.12,1.64,34.44,4.92
					c11.31,3.28,21.37,7.88,30.16,13.78l-15.49,30.85C1130.94,404.65,1122.09,400.71,1112.97,397.86z"/>
			</g>
			<path class="st1" d="M319.85,463.69h-8.29c-9.82,0-17.78-7.96-17.78-17.78v-96.9c0-9.82,7.96-17.78,17.78-17.78h8.29
				c9.82,0,17.78,7.96,17.78,17.78v96.9C337.63,455.73,329.67,463.69,319.85,463.69z"/>
			<g>
				<path class="st0" d="M397.1,403.28c-7.63-13.16-18.21-23.43-31.72-30.83v71.91c0.16,1.96,0.24,3.96,0.24,6.02
					c0,15.75-4.61,28.55-13.84,38.4c-9.23,9.84-21.09,14.77-35.6,14.77c-14.95,0-27.03-4.92-36.26-14.77
					c-8.72-9.3-13.31-21.24-13.8-35.82h-0.1v-80.26c-13.4,7.39-23.88,17.57-31.42,30.58c-7.8,13.45-11.7,28.94-11.7,46.44
					c0,17.72,3.9,33.37,11.7,46.93c7.8,13.57,18.73,24.07,32.79,31.5c14.06,7.44,30.32,11.16,48.78,11.16
					c18.24,0,34.33-3.72,48.29-11.16c13.95-7.43,24.83-17.94,32.63-31.5c7.8-13.56,11.7-29.21,11.7-46.93
					C408.8,432.21,404.89,416.73,397.1,403.28z"/>
			</g>
			<g>
				<path class="st0" d="M1340.84,409.09h88.52v100.48c-11.85,8.83-26.12,15.99-42.81,21.48c-16.69,5.49-32.79,8.24-48.3,8.24
					c-22.19,0-42.38-5.17-60.58-15.51c-18.2-10.34-32.58-24.39-43.13-42.16c-10.56-17.77-15.83-37.42-15.83-58.96
					c0-21.53,5.38-41.08,16.15-58.64c10.77-17.55,25.47-31.44,44.1-41.68c18.63-10.23,39.25-15.35,61.87-15.35
					c16.15,0,31.82,2.91,47.01,8.72c15.18,5.82,28.48,13.79,39.9,23.91l-24.55,31.98c-8.62-8.18-18.31-14.54-29.08-19.06
					c-10.77-4.52-21.86-6.78-33.28-6.78c-14.22,0-27.3,3.39-39.25,10.18c-11.95,6.78-21.38,16.1-28.27,27.95
					c-6.9,11.85-10.34,24.77-10.34,38.77c0,14.22,3.5,27.25,10.5,39.09c7,11.85,16.42,21.22,28.27,28.11
					c11.84,6.9,24.98,10.34,39.42,10.34c7.75,0,15.88-1.24,24.39-3.71c8.51-2.47,16.64-5.98,24.39-10.5v-37.48h-49.11V409.09z"/>
			</g>
			<g>
				<path class="st0" d="M1570.86,409.09h88.52v100.48c-11.85,8.83-26.12,15.99-42.81,21.48c-16.69,5.49-32.79,8.24-48.3,8.24
					c-22.19,0-42.38-5.17-60.58-15.51c-18.2-10.34-32.58-24.39-43.13-42.16c-10.56-17.77-15.83-37.42-15.83-58.96
					c0-21.53,5.38-41.08,16.15-58.64c10.77-17.55,25.47-31.44,44.1-41.68c18.63-10.23,39.25-15.35,61.87-15.35
					c16.15,0,31.82,2.91,47.01,8.72c15.18,5.82,28.48,13.79,39.9,23.91l-24.55,31.98c-8.62-8.18-18.31-14.54-29.08-19.06
					c-10.77-4.52-21.86-6.78-33.28-6.78c-14.22,0-27.3,3.39-39.25,10.18c-11.95,6.78-21.38,16.1-28.27,27.95
					c-6.9,11.85-10.34,24.77-10.34,38.77c0,14.22,3.5,27.25,10.5,39.09c7,11.85,16.42,21.22,28.27,28.11
					c11.84,6.9,24.98,10.34,39.42,10.34c7.75,0,15.88-1.24,24.39-3.71c8.51-2.47,16.64-5.98,24.39-10.5v-37.48h-49.11V409.09z"/>
			</g>
			<g>
				<circle class="st0" cx="1208.53" cy="519.19" r="20.59"/>
			</g>
		</g>
	</g>
	<text transform="matrix(1 0 0 1 1687.7549 538.1592)" class="st0 st2 st3">BETA</text>
</g>
</svg>
