<?xml version="1.0" encoding="utf-8"?>
<!-- Generator: Adobe Illustrator 24.2.3, SVG Export Plug-In . SVG Version: 6.00 Build 0)  -->
<svg version="1.1" xmlns="http://www.w3.org/2000/svg" xmlns:xlink="http://www.w3.org/1999/xlink" x="0px" y="0px"
	 viewBox="0 0 2000 800" style="enable-background:new 0 0 2000 800;" xml:space="preserve">
<style type="text/css">
	.st0{fill:url(#SVGID_1_);}
	.st1{fill:url(#SVGID_2_);}
	.st2{fill:url(#SVGID_3_);}
	.st3{fill:url(#SVGID_4_);}
	.st4{fill:url(#SVGID_5_);}
	.st5{fill:url(#SVGID_6_);}
	.st6{fill:url(#SVGID_7_);stroke:#FFFFFF;stroke-miterlimit:10;}
	.st7{fill:url(#SVGID_8_);}
	.st8{fill:url(#SVGID_9_);}
	.st9{fill:url(#SVGID_10_);}
	.st10{fill:url(#SVGID_11_);}
	.st11{opacity:0.5;}
	.st12{fill:url(#SVGID_12_);}
	.st13{fill:url(#SVGID_13_);}
	.st14{fill:url(#SVGID_14_);}
	.st15{fill:url(#SVGID_15_);}
	.st16{fill:url(#SVGID_16_);}
	.st17{fill:url(#SVGID_17_);}
	.st18{fill:url(#SVGID_18_);}
	.st19{opacity:0.5;fill:url(#SVGID_19_);}
	.st20{opacity:0.5;fill:url(#SVGID_20_);}
	.st21{opacity:0.5;fill:url(#SVGID_21_);}
</style>
<g id="Base">
</g>
<g id="Layer_2">
	<g>
		<g>
			<g>
				<linearGradient id="SVGID_1_" gradientUnits="userSpaceOnUse" x1="122.8787" y1="260.872" x2="122.8787" y2="537.7244">
					<stop  offset="0" style="stop-color:#34495E"/>
					<stop  offset="1" style="stop-color:#2C3E50"/>
				</linearGradient>
				<path class="st0" d="M179.48,537.72l-48.06-81.87c-2.12,0.27-5.43,0.4-9.93,0.4H58.73v81.47H5.5V260.87h115.99
					c36.01,0,63.82,8.31,83.42,24.92c19.59,16.61,29.39,40.08,29.39,70.4c0,21.62-4.7,40.08-14.1,55.37
					c-9.4,15.29-23.11,26.76-41.11,34.41l61.17,91.76H179.48z M58.73,409.58h62.76c20.12,0,35.48-4.35,46.08-13.05
					c10.59-8.7,15.89-21.62,15.89-38.76c0-16.87-5.3-29.53-15.89-37.97c-10.59-8.44-25.96-12.66-46.08-12.66H58.73V409.58z"/>
			</g>
			<g>
				<linearGradient id="SVGID_2_" gradientUnits="userSpaceOnUse" x1="585.8328" y1="323.757" x2="585.8328" y2="539.7016">
					<stop  offset="0" style="stop-color:#34495E"/>
					<stop  offset="1" style="stop-color:#2C3E50"/>
				</linearGradient>
				<path class="st1" d="M618.21,369.24c-10.99-3.42-21.12-5.14-30.39-5.14c-8.74,0-15.69,1.52-20.85,4.55
					c-5.16,3.03-7.75,7.71-7.75,14.04c0,6.59,3.24,11.67,9.73,15.23c6.49,3.56,16.75,7.32,30.78,11.27
					c14.83,4.49,27.01,8.9,36.54,13.25c9.53,4.35,17.81,10.82,24.83,19.38c7.01,8.57,10.53,19.84,10.53,33.82
					c0,20.57-7.94,36.39-23.83,47.46c-15.89,11.07-35.89,16.61-59.98,16.61c-16.42,0-32.44-2.57-48.06-7.71
					c-15.63-5.14-28.87-12.46-39.72-21.95l17.88-35.99c9.53,8.18,20.92,14.57,34.16,19.18c13.24,4.62,25.82,6.92,37.74,6.92
					c9.53,0,17.14-1.64,22.84-4.94c5.69-3.29,8.54-8.24,8.54-14.83c0-7.38-3.31-12.92-9.93-16.61c-6.62-3.69-17.35-7.77-32.17-12.26
					c-14.3-4.22-25.96-8.37-34.96-12.46c-9.01-4.09-16.82-10.28-23.44-18.59c-6.62-8.31-9.93-19.18-9.93-32.63
					c0-20.83,7.61-36.71,22.84-47.66c15.23-10.94,34.36-16.41,57.4-16.41c14.03,0,27.87,1.98,41.51,5.93
					c13.64,3.95,25.75,9.49,36.35,16.61l-18.67,37.18C639.85,377.42,629.19,372.67,618.21,369.24z"/>
			</g>
			<g>
				<linearGradient id="SVGID_3_" gradientUnits="userSpaceOnUse" x1="759.217" y1="276.6924" x2="759.217" y2="540.0977">
					<stop  offset="0" style="stop-color:#34495E"/>
					<stop  offset="1" style="stop-color:#2C3E50"/>
				</linearGradient>
				<path class="st2" d="M832.11,524.67c-16.95,10.28-34.69,15.43-53.23,15.43c-18.27,0-33.24-5.34-44.89-16.02
					c-11.66-10.68-17.48-26.43-17.48-47.26V372.4h-29.79l-0.4-37.57h30.19v-58.14h51.24v58.14h60.77v37.57h-60.77v95.32
					c0,9.76,1.85,16.68,5.56,20.76c3.71,4.09,9.27,6.13,16.68,6.13c7.94,0,18.01-2.9,30.19-8.7L832.11,524.67z"/>
			</g>
			<g>
				<linearGradient id="SVGID_4_" gradientUnits="userSpaceOnUse" x1="948.2958" y1="324.5481" x2="948.2958" y2="539.7016">
					<stop  offset="0" style="stop-color:#34495E"/>
					<stop  offset="1" style="stop-color:#2C3E50"/>
				</linearGradient>
				<path class="st3" d="M1027.74,353.42c17.08,19.25,25.62,46.27,25.62,81.08c0,6.86-0.14,12-0.4,15.42h-156.9
					c3.44,15.03,10.53,26.83,21.25,35.4c10.73,8.57,23.9,12.85,39.52,12.85c10.85,0,21.25-2.04,31.18-6.13
					c9.93-4.08,18.6-9.95,26.02-17.6l27.8,28.87c-10.59,11.61-23.5,20.57-38.73,26.9c-15.23,6.33-32.11,9.49-50.64,9.49
					c-21.72,0-40.85-4.48-57.4-13.45c-16.55-8.96-29.33-21.56-38.33-37.77c-9-16.22-13.51-34.87-13.51-55.96
					c0-21.09,4.57-39.81,13.7-56.16c9.14-16.35,21.91-29.07,38.33-38.17c16.42-9.1,35.09-13.65,56.01-13.65
					C985.17,324.55,1010.66,334.18,1027.74,353.42z M1006.09,415.51c-0.53-15.55-5.7-27.94-15.49-37.18
					c-9.8-9.23-22.78-13.84-38.93-13.84c-15.1,0-27.75,4.55-37.94,13.64c-10.2,9.1-16.48,21.56-18.87,37.38H1006.09z"/>
			</g>
			<g>
				<linearGradient id="SVGID_5_" gradientUnits="userSpaceOnUse" x1="1151.8695" y1="324.1525" x2="1151.8695" y2="537.7244">
					<stop  offset="0" style="stop-color:#34495E"/>
					<stop  offset="1" style="stop-color:#2C3E50"/>
				</linearGradient>
				<path class="st4" d="M1170.74,335.42c12.31-7.25,26.67-11.01,43.1-11.27v49.83c-21.98-1.32-39.52,3.76-52.63,15.23
					c-13.11,11.47-19.66,26.96-19.66,46.47v102.04h-51.64V326.13h51.64v40.74C1148.69,353.16,1158.42,342.68,1170.74,335.42z"/>
			</g>
			<g>
				<linearGradient id="SVGID_6_" gradientUnits="userSpaceOnUse" x1="1303.6071" y1="323.757" x2="1303.6071" y2="539.7016">
					<stop  offset="0" style="stop-color:#34495E"/>
					<stop  offset="1" style="stop-color:#2C3E50"/>
				</linearGradient>
				<path class="st5" d="M1335.98,369.24c-10.99-3.42-21.12-5.14-30.39-5.14c-8.74,0-15.69,1.52-20.85,4.55
					c-5.16,3.03-7.75,7.71-7.75,14.04c0,6.59,3.24,11.67,9.73,15.23c6.49,3.56,16.75,7.32,30.78,11.27
					c14.83,4.49,27.01,8.9,36.54,13.25c9.53,4.35,17.81,10.82,24.83,19.38c7.01,8.57,10.53,19.84,10.53,33.82
					c0,20.57-7.94,36.39-23.83,47.46c-15.89,11.07-35.89,16.61-59.98,16.61c-16.42,0-32.44-2.57-48.06-7.71
					c-15.63-5.14-28.87-12.46-39.72-21.95l17.88-35.99c9.53,8.18,20.92,14.57,34.16,19.18c13.24,4.62,25.82,6.92,37.74,6.92
					c9.53,0,17.14-1.64,22.84-4.94c5.69-3.29,8.54-8.24,8.54-14.83c0-7.38-3.31-12.92-9.93-16.61c-6.62-3.69-17.35-7.77-32.17-12.26
					c-14.3-4.22-25.96-8.37-34.95-12.46c-9.01-4.09-16.82-10.28-23.44-18.59c-6.62-8.31-9.93-19.18-9.93-32.63
					c0-20.83,7.61-36.71,22.84-47.66c15.23-10.94,34.36-16.41,57.4-16.41c14.03,0,27.87,1.98,41.51,5.93
					c13.64,3.95,25.75,9.49,36.35,16.61l-18.67,37.18C1357.63,377.42,1346.97,372.67,1335.98,369.24z"/>
			</g>
			<linearGradient id="SVGID_7_" gradientUnits="userSpaceOnUse" x1="375.1311" y1="288.9253" x2="375.1311" y2="448.5747">
				<stop  offset="0" style="stop-color:#34495E"/>
				<stop  offset="1" style="stop-color:#2C3E50"/>
			</linearGradient>
			<path class="st6" d="M383.78,448.57h-17.29c-9.82,0-17.78-7.96-17.78-17.78V306.71c0-9.82,7.96-17.78,17.78-17.78h17.29
				c9.82,0,17.78,7.96,17.78,17.78v124.08C401.56,440.61,393.6,448.57,383.78,448.57z"/>
			<g>
				<linearGradient id="SVGID_8_" gradientUnits="userSpaceOnUse" x1="375.3094" y1="338.6051" x2="375.3094" y2="539.7016">
					<stop  offset="0" style="stop-color:#34495E"/>
					<stop  offset="1" style="stop-color:#2C3E50"/>
				</linearGradient>
				<path class="st7" d="M473.22,375.77c-9.19-15.86-21.94-28.24-38.22-37.16v86.66c0.19,2.36,0.29,4.78,0.29,7.26
					c0,18.98-5.56,34.41-16.68,46.27c-11.12,11.86-25.42,17.8-42.9,17.8c-18.01,0-32.57-5.93-43.69-17.8
					c-10.51-11.21-16.05-25.6-16.63-43.16h-0.12v-96.72c-16.15,8.9-28.78,21.18-37.87,36.86c-9.4,16.22-14.1,34.87-14.1,55.96
					c0,21.36,4.7,40.21,14.1,56.56c9.4,16.35,22.57,29.01,39.52,37.97c16.94,8.97,36.54,13.45,58.79,13.45
					c21.98,0,41.37-4.48,58.19-13.45c16.81-8.96,29.92-21.62,39.33-37.97c9.4-16.35,14.1-35.2,14.1-56.56
					C487.33,410.64,482.62,391.98,473.22,375.77z"/>
			</g>
			<g>
				<linearGradient id="SVGID_9_" gradientUnits="userSpaceOnUse" x1="1590.3491" y1="259.7348" x2="1590.3491" y2="539.6827">
					<stop  offset="0" style="stop-color:#34495E"/>
					<stop  offset="1" style="stop-color:#2C3E50"/>
				</linearGradient>
				<path class="st8" d="M1610.6,382.77h106.68v121.09c-14.28,10.65-31.48,19.27-51.59,25.89c-20.12,6.62-39.52,9.93-58.21,9.93
					c-26.74,0-51.07-6.23-73-18.69c-21.94-12.46-39.26-29.4-51.98-50.81c-12.72-21.41-19.08-45.1-19.08-71.06
					c0-25.95,6.48-49.51,19.47-70.67c12.98-21.15,30.69-37.9,53.15-50.23c22.45-12.33,47.31-18.49,74.56-18.49
					c19.47,0,38.35,3.5,56.65,10.51c18.3,7.01,34.32,16.61,48.09,28.81l-29.59,38.55c-10.38-9.86-22.07-17.52-35.04-22.97
					c-12.98-5.45-26.35-8.18-40.1-8.18c-17.13,0-32.9,4.09-47.31,12.27c-14.41,8.18-25.76,19.41-34.07,33.68
					c-8.31,14.28-12.46,29.85-12.46,46.72c0,17.13,4.22,32.84,12.65,47.11c8.43,14.28,19.79,25.57,34.07,33.87
					c14.27,8.31,30.11,12.46,47.5,12.46c9.34,0,19.14-1.49,29.4-4.48c10.25-2.98,20.05-7.2,29.4-12.65v-45.17h-59.18V382.77z"/>
			</g>
			<g>
				<linearGradient id="SVGID_10_" gradientUnits="userSpaceOnUse" x1="1867.5696" y1="259.7348" x2="1867.5696" y2="539.6827">
					<stop  offset="0" style="stop-color:#34495E"/>
					<stop  offset="1" style="stop-color:#2C3E50"/>
				</linearGradient>
				<path class="st9" d="M1887.82,382.77h106.68v121.09c-14.28,10.65-31.48,19.27-51.59,25.89c-20.12,6.62-39.52,9.93-58.21,9.93
					c-26.74,0-51.07-6.23-73-18.69c-21.94-12.46-39.26-29.4-51.98-50.81c-12.72-21.41-19.08-45.1-19.08-71.06
					c0-25.95,6.48-49.51,19.47-70.67c12.98-21.15,30.69-37.9,53.15-50.23c22.45-12.33,47.31-18.49,74.56-18.49
					c19.47,0,38.35,3.5,56.65,10.51c18.3,7.01,34.32,16.61,48.09,28.81l-29.59,38.55c-10.38-9.86-22.07-17.52-35.04-22.97
					c-12.98-5.45-26.35-8.18-40.1-8.18c-17.13,0-32.9,4.09-47.31,12.27c-14.41,8.18-25.76,19.41-34.07,33.68
					c-8.31,14.28-12.46,29.85-12.46,46.72c0,17.13,4.22,32.84,12.65,47.11c8.43,14.28,19.79,25.57,34.07,33.87
					c14.27,8.31,30.11,12.46,47.5,12.46c9.34,0,19.14-1.49,29.4-4.48c10.25-2.98,20.05-7.2,29.4-12.65v-45.17h-59.18V382.77z"/>
			</g>
			<g>
				<linearGradient id="SVGID_11_" gradientUnits="userSpaceOnUse" x1="1426.3359" y1="515.4548" x2="1475.9567" y2="515.4548">
					<stop  offset="0" style="stop-color:#34495E"/>
					<stop  offset="1" style="stop-color:#2C3E50"/>
				</linearGradient>
				<circle class="st10" cx="1451.15" cy="515.45" r="24.81"/>
			</g>
			<g class="st11">
				<linearGradient id="SVGID_12_" gradientUnits="userSpaceOnUse" x1="5.6495" y1="329.5491" x2="234.8375" y2="329.5491">
					<stop  offset="0" style="stop-color:#33D9B2"/>
					<stop  offset="1" style="stop-color:#218D74"/>
				</linearGradient>
				<path class="st12" d="M5.67,259.8c0,0-3.22,45.76,66.89,45.76h56.91c0,0,53.98,2.49,53.98,42.01s42.81,51.73,42.81,51.73
					s9.85-15.75,8.44-50.11c-1.42-34.37-19.27-83.99-97.72-89.38H5.67z"/>
				<linearGradient id="SVGID_13_" gradientUnits="userSpaceOnUse" x1="379.8571" y1="437.5397" x2="487.8334" y2="437.5397">
					<stop  offset="0" style="stop-color:#33D9B2"/>
					<stop  offset="1" style="stop-color:#218D74"/>
				</linearGradient>
				<path class="st13" d="M473.73,374.18c-9.19-15.86-21.94-28.24-38.22-37.16v42.59v44.06c0.19,2.36,0.29,4.78,0.29,7.26
					c0,2.48-0.1,4.9-0.29,7.26v0.97c0,0,3.17,52.06-55.65,98.91c20.48-0.47,38.67-4.93,54.55-13.4
					c16.81-8.96,29.92-21.62,39.33-37.97c9.4-16.35,14.1-35.2,14.1-56.56C487.83,409.05,483.13,390.39,473.73,374.18z"/>
				<linearGradient id="SVGID_14_" gradientUnits="userSpaceOnUse" x1="511.2659" y1="372.0968" x2="669.3599" y2="372.0968">
					<stop  offset="0" style="stop-color:#33D9B2"/>
					<stop  offset="1" style="stop-color:#218D74"/>
				</linearGradient>
				<path class="st14" d="M523.87,422.03c12.53-32.21,28.67-46.8,41.36-53.38c0.69-0.57,1.42-1.11,2.25-1.59
					c5.16-3.03,12.11-4.55,20.85-4.55c9.27,0,19.4,1.72,30.39,5.14c10.99,3.43,21.65,8.18,31.98,14.24l18.67-37.18
					c-10.59-7.12-22.71-12.66-36.35-16.61c-13.64-3.96-27.48-5.93-41.51-5.93c-23.04,0-42.17,5.48-57.4,16.41
					c-15.23,10.94-22.84,26.83-22.84,47.66c0,13.45,3.31,24.32,9.93,32.63C522.07,419.96,522.96,421.01,523.87,422.03z"/>
				<linearGradient id="SVGID_15_" gradientUnits="userSpaceOnUse" x1="1229.0403" y1="372.1462" x2="1387.1348" y2="372.1462">
					<stop  offset="0" style="stop-color:#33D9B2"/>
					<stop  offset="1" style="stop-color:#218D74"/>
				</linearGradient>
				<path class="st15" d="M1241.74,422.13c12.43-31.99,28.4-46.63,41.06-53.3c0.75-0.64,1.55-1.24,2.46-1.77
					c5.16-3.03,12.12-4.55,20.85-4.55c9.27,0,19.4,1.72,30.39,5.14c10.99,3.43,21.65,8.18,31.98,14.24l18.67-37.18
					c-10.59-7.12-22.71-12.66-36.35-16.61c-13.64-3.96-27.48-5.93-41.51-5.93c-23.04,0-42.17,5.48-57.4,16.41
					c-15.23,10.94-22.84,26.83-22.84,47.66c0,13.45,3.31,24.32,9.93,32.63C1239.87,419.99,1240.79,421.08,1241.74,422.13z"/>
				<linearGradient id="SVGID_16_" gradientUnits="userSpaceOnUse" x1="881.7683" y1="385.6453" x2="1053.8685" y2="385.6453">
					<stop  offset="0" style="stop-color:#33D9B2"/>
					<stop  offset="1" style="stop-color:#218D74"/>
				</linearGradient>
				<path class="st16" d="M925.58,368.82c7.81-3.93,16.67-5.91,26.6-5.91c16.15,0,29.13,4.62,38.93,13.84
					c9.79,9.23,14.96,21.62,15.49,37.18h-0.26c2.61,11.21,11.4,31.96,40.87,34.41h6.26c0.26-3.42,0.4-8.57,0.4-15.42
					c0-34.8-8.54-61.83-25.62-81.08c-17.08-19.24-42.57-28.87-76.46-28.87c-20.92,0-39.59,4.55-56.01,13.65
					c-5.01,2.77-9.68,5.89-14.01,9.34C885.81,354.41,896.69,367.3,925.58,368.82z"/>
				<linearGradient id="SVGID_17_" gradientUnits="userSpaceOnUse" x1="1090.411" y1="402.7353" x2="1214.3439" y2="402.7353">
					<stop  offset="0" style="stop-color:#33D9B2"/>
					<stop  offset="1" style="stop-color:#218D74"/>
				</linearGradient>
				<path class="st17" d="M1171.25,333.83c-12.31,7.26-22.05,17.74-29.2,31.44v-40.74h-51.64v126.49
					c9.84,32.49,42.87,32.36,51.64,31.73v-48.66c0-19.51,6.55-35,19.66-46.47c13.11-11.47,30.65-16.54,52.63-15.23v-49.83
					C1197.92,322.83,1183.56,326.59,1171.25,333.83z"/>
				<linearGradient id="SVGID_18_" gradientUnits="userSpaceOnUse" x1="686.8353" y1="359.6654" x2="828.6564" y2="359.6654">
					<stop  offset="0" style="stop-color:#33D9B2"/>
					<stop  offset="1" style="stop-color:#218D74"/>
				</linearGradient>
				<path class="st18" d="M717.02,370.81v32.98c2.37,15.68,12.38,39.56,51.24,40.44v-73.42h35.34c8.83-2.74,21.25-11.32,25.05-37.57
					h-60.39V275.1h-51.24v58.14h-30.19l0.4,37.57H717.02z"/>
			</g>
			<linearGradient id="SVGID_19_" gradientUnits="userSpaceOnUse" x1="1589.8427" y1="259.86" x2="1589.8427" y2="539.8079">
				<stop  offset="0" style="stop-color:#33D9B2"/>
				<stop  offset="1" style="stop-color:#218D74"/>
			</linearGradient>
			<path class="st19" d="M1610.09,382.9h106.68v121.09c-14.28,10.65-31.48,19.27-51.59,25.89c-20.12,6.62-39.52,9.93-58.21,9.93
				c-26.74,0-51.07-6.23-73-18.69c-21.94-12.46-39.26-29.4-51.98-50.81c-12.72-21.41-19.08-45.1-19.08-71.06
				c0-25.95,6.48-49.51,19.47-70.67c12.98-21.15,30.69-37.9,53.15-50.23c22.45-12.33,47.31-18.49,74.56-18.49
				c19.47,0,38.35,3.5,56.65,10.51c18.3,7.01,34.32,16.61,48.09,28.81l-29.59,38.55c-10.38-9.86-22.07-17.52-35.04-22.97
				c-12.98-5.45-26.35-8.18-40.1-8.18c-17.13,0-32.9,4.09-47.31,12.27c-14.41,8.18-25.76,19.41-34.07,33.68
				c-8.31,14.28-12.46,29.85-12.46,46.72c0,17.13,4.22,32.84,12.65,47.11c8.43,14.28,19.79,25.57,34.07,33.87
				c14.27,8.31,30.11,12.46,47.5,12.46c9.34,0,19.14-1.49,29.4-4.48c10.25-2.98,20.05-7.2,29.4-12.65V430.4h-59.18V382.9z"/>
			<linearGradient id="SVGID_20_" gradientUnits="userSpaceOnUse" x1="1867.0632" y1="259.86" x2="1867.0632" y2="539.8079">
				<stop  offset="0" style="stop-color:#33D9B2"/>
				<stop  offset="1" style="stop-color:#218D74"/>
			</linearGradient>
			<path class="st20" d="M1887.31,382.9h106.68v121.09c-14.28,10.65-31.48,19.27-51.59,25.89c-20.12,6.62-39.52,9.93-58.21,9.93
				c-26.74,0-51.07-6.23-73-18.69c-21.94-12.46-39.26-29.4-51.98-50.81c-12.72-21.41-19.08-45.1-19.08-71.06
				c0-25.95,6.48-49.51,19.47-70.67c12.98-21.15,30.69-37.9,53.15-50.23c22.45-12.33,47.31-18.49,74.56-18.49
				c19.47,0,38.35,3.5,56.65,10.51c18.3,7.01,34.32,16.61,48.09,28.81l-29.59,38.55c-10.38-9.86-22.07-17.52-35.04-22.97
				c-12.98-5.45-26.35-8.18-40.1-8.18c-17.13,0-32.9,4.09-47.31,12.27c-14.41,8.18-25.76,19.41-34.07,33.68
				c-8.31,14.28-12.46,29.85-12.46,46.72c0,17.13,4.22,32.84,12.65,47.11c8.43,14.28,19.79,25.57,34.07,33.87
				c14.27,8.31,30.11,12.46,47.5,12.46c9.34,0,19.14-1.49,29.4-4.48c10.25-2.98,20.05-7.2,29.4-12.65V430.4h-59.18V382.9z"/>
		</g>
		<linearGradient id="SVGID_21_" gradientUnits="userSpaceOnUse" x1="375.4008" y1="289.4647" x2="375.4008" y2="449.114">
			<stop  offset="0" style="stop-color:#33D9B2"/>
			<stop  offset="1" style="stop-color:#218D74"/>
		</linearGradient>
		<path class="st21" d="M383.78,449.11h-16.75c-9.82,0-17.78-7.96-17.78-17.78V307.25c0-9.82,7.96-17.78,17.78-17.78h16.75
			c9.82,0,17.78,7.96,17.78,17.78v124.08C401.56,441.15,393.6,449.11,383.78,449.11z"/>
	</g>
</g>
</svg>
